<svg enable-background="new 0 0 220 22" viewBox="0 0 220 22" xmlns="http://www.w3.org/2000/svg"><path d="m173.1 2.6c.9-.1 1.5-.2 2-.2 1.2-.1 2.5-.2 3.6-.2 3 0 4.7.3 6 1.2 1.4 1 2.3 2.7 2.3 4.5 0 2.1-1.2 4.1-3.2 5l3.6 6.6h-7l-2-5h-1l-.8 5h-6.1zm4.9 7.9h1.6c.8-.2 1.5-.9 1.5-1.7.1-1.1-.7-1.8-2.2-1.8-.1 0-.3 0-.4 0z" fill="#082f49"/><path d="m195.2 14.4h6.2l-1.4 5.1h-11.6l2.5-17.1h6.1z" fill="#082f49"/><path d="m204.4 2.5c1.5-.2 3-.3 4.5-.3 2.6-.1 5.2.5 7.5 1.9 2.4 1.4 3.7 4 3.6 6.8-.1 2.7-1.3 5.2-3.4 6.9-1.8 1.4-4.2 2.1-7.4 2.1-2.5 0-4.9-.2-7.3-.8zm4.2 12.5c.3.1.7.1 1 .1 2 0 3.7-1.6 3.7-3.6v-.1c.3-1.9-1.1-3.7-3-4-.2 0-.4 0-.6 0z" fill="#082f49"/><path d="m161.4 0c-6.1 0-11 4.9-11 11s4.9 11 11 11 11-4.9 11-11-4.9-11-11-11zm-.8 1.7v3.4h-2.6c.6-1.7 1.5-3 2.6-3.4zm1.6 0c1.1.4 2 1.7 2.7 3.4h-2.7zm-4.4.5c-.6.9-1.1 1.9-1.4 2.9h-2.4c1-1.3 2.3-2.3 3.8-2.9zm7.1 0c1.5.6 2.9 1.6 3.9 2.9h-2.4c-.4-1-.9-2-1.5-2.9zm-11.9 4.4h3c-.3 1.2-.4 2.4-.5 3.6h-3.5c.1-1.2.4-2.4 1-3.6zm4.5 0h3.1v3.6h-3.6c.1-1.2.2-2.4.5-3.6zm4.7 0h3.1c.3 1.2.4 2.4.5 3.6h-3.6zm4.6 0h3c.6 1.1.9 2.3 1 3.6h-3.6c-0-1.2-.1-2.4-.4-3.6zm-14.8 5.2h3.6c0 1.2.2 2.4.5 3.6h-3c-.7-1.2-1.1-2.4-1.1-3.6zm5.1 0h3.6v3.6h-3.1c-.4-1.2-.5-2.4-.5-3.6zm5.1 0h3.6c0 1.2-.2 2.4-.5 3.6h-3.1zm5.1 0h3.6c-.1 1.2-.4 2.5-1 3.6h-3c.2-1.2.3-2.4.4-3.6zm-13.3 5.1h2.4c.3 1 .8 2 1.4 2.9-1.5-.6-2.8-1.6-3.8-2.9zm3.9 0h2.7v3.5c-1.1-.5-2-1.8-2.7-3.5zm4.3 0h2.7c-.6 1.8-1.5 3.1-2.7 3.5zm4.2 0h2.4c-1 1.3-2.4 2.3-3.9 2.9.6-.9 1.1-1.9 1.5-2.9z" fill="#e64c7a"/><g fill="#082f49"><path d="m2.6 2.6c.9-.1 1.5-.2 2-.2 1.1-.1 2.4-.2 3.5-.2 3 0 4.7.3 6 1.2 1.4 1 2.3 2.7 2.3 4.5 0 2.1-1.2 4.1-3.2 5l3.6 6.6h-7l-2-5h-1l-.8 5h-6zm4.9 7.9h1.6c.8-.2 1.5-.9 1.5-1.7.1-1.2-.7-1.8-2.2-1.8-.1 0-.3 0-.4 0z"/><path d="m25.2 8.9h4.6l-.6 4.1h-4.6l-.4 2h6.8l-1.3 4.5h-12l2.5-17.1h11.3l-.5 4.5h-5.5z"/><path d="m45.5 8.6c-1.1-.8-2.4-1.3-3.7-1.5-.6-.1-1.1.2-1.2.6 0 .3.1.7.6 1 .1.1.2.2.5.4.2.1.5.3.7.5 2.3 1.6 3 2.7 3 4.6 0 3.6-2.8 5.7-7.6 5.7-1.9-.1-3.7-.4-5.4-1.1-.5-.2-.9-.4-1.4-.7l1.5-5.3c1.2 1 2.6 1.6 4.1 1.8.5.1 1-.3 1.1-.8 0-.4-.2-.6-.7-1-.9-.6-1.8-1.3-2.6-2.1-.9-.9-1.4-2.1-1.3-3.4.4-3.1 3.1-5.3 7.1-5.3 2.1-.1 4.2.5 6.1 1.5z"/><path d="m55.5 19.5h-6.1l1.8-12h-4.1l.8-5h14.2l-.8 5h-4.1z"/><path d="m76.3 6c1 1.1 1.6 2.5 1.5 4 .1 3.7-2.8 6.7-6.5 6.8-.1 0-.2 0-.3 0-3.6 0-5.8-2.1-5.8-5.6 0-1.8.7-3.5 2-4.8s3-2 4.8-2c1.6-.1 3.1.5 4.3 1.6zm-6.6 4.9c0 1.5.5 2.2 1.6 2.2.6 0 1.2-.3 1.4-.9.3-.6.4-1.3.4-1.9 0-1.4-.6-2.1-1.6-2.1s-1.8 1.2-1.8 2.7z"/><path d="m83.2 9.7h3.1l-.5 3.3h-3.1l-.5 3.5h-4.2l1.8-11.8h7.8l-.6 3.5h-3.6z"/><path d="m96.8 16.5h-4.2l1.2-8.3h-2.8l.5-3.5h9.9l-.5 3.5h-2.9z"/><path d="m108.8 8.9.6-4.2h4.2l-1.8 11.8h-4.2l.7-4.4h-2.9l-.6 4.4h-4.2l1.8-11.8h4.2l-.6 4.2z"/><path d="m118.3 9.1h3.2l-.4 2.8h-3.2l-.2 1.4h4.7l-.9 3.1h-8.3l1.8-11.8h7.9l-.5 3.1h-3.8z"/><path d="m148.3 2.1 5.9.9-9.3 16.5h-4.8l-1-4.5-2.3 4.5h-4.7l-4.3-16.5 6-.9 2.5 10.1 1.6-3-1.4-6.2 5.9-.9 1.6 8z"/></g></svg>