<svg height="256" viewBox="0 0 256 256" width="256" xmlns="http://www.w3.org/2000/svg" xmlns:xlink="http://www.w3.org/1999/xlink"><linearGradient id="a" gradientUnits="userSpaceOnUse" x1="38" x2="218" y1="128" y2="128"><stop offset="0" stop-color="#d6d3d1"/><stop offset="1" stop-color="#e7e5e4"/></linearGradient><rect fill="#082f49" height="256" rx="16" width="256"/><path d="m128 37.99994a90.00006 90.00006 0 1 0 90 90.00012 90.09556 90.09556 0 0 0 -90-90.00012zm-6.27907 13.60465v28.19041h-21.78052c5.10034-14.37293 12.5388-24.89911 21.78052-28.19041zm12.55814 0c9.24172 3.2913 16.68018 13.81748 21.78052 28.1904h-21.78052zm-35.25436 4.57849a92.78925 92.78925 0 0 0 -11.64244 23.61192h-20.01454a77.35862 77.35862 0 0 1 31.65698-23.61192zm57.95058 0a77.35855 77.35855 0 0 1 31.657 23.61191h-20.01456a92.78925 92.78925 0 0 0 -11.64244-23.61191zm-97.718 36.17h24.52759a156.67173 156.67173 0 0 0 -3.7936 29.30233h-29.17151a77.15831 77.15831 0 0 1 8.4375-29.30228zm37.02035 0h25.44331v29.30233h-29.17153a157.22691 157.22691 0 0 1 3.7282-29.30228zm38.00145 0h25.44331a157.22607 157.22607 0 0 1 3.7282 29.30233h-29.17153zm37.93605 0h24.52761a77.15831 77.15831 0 0 1 8.4375 29.30233h-29.17153a156.67257 156.67257 0 0 0 -3.7936-29.30228zm-121.39537 41.86052h29.17151a155.95921 155.95921 0 0 0 3.7936 29.30232h-24.593a77.14966 77.14966 0 0 1 -8.37211-29.30232zm41.72965 0h29.17151v29.30232h-25.44331a157.14668 157.14668 0 0 1 -3.7282-29.30232zm41.72965 0h29.17151a157.14668 157.14668 0 0 1 -3.7282 29.30232h-25.44331zm41.72965 0h29.17151a77.14948 77.14948 0 0 1 -8.37209 29.30232h-24.593a155.96 155.96 0 0 0 3.79358-29.30232zm-108.70639 41.86034h20.01453a92.87553 92.87553 0 0 0 11.70785 23.74273 77.44356 77.44356 0 0 1 -31.72238-23.74273zm32.57267 0h21.84593v28.25581c-9.25799-3.29718-16.74506-13.84375-21.84593-28.25581zm34.40407 0h21.84593c-5.10087 14.412-12.58794 24.95863-21.84593 28.25581zm34.40407 0h20.01453a77.44382 77.44382 0 0 1 -31.72238 23.74273 92.87994 92.87994 0 0 0 11.70785-23.74273z" fill="url(#a)"/></svg>